<svg width="54" height="56" viewBox="0 0 54 56" fill="none" xmlns="http://www.w3.org/2000/svg">
<path d="M38.1047 29.2773L38.1046 29.2774C39.5933 30.7422 40.7743 32.4896 41.5785 34.4171C42.3827 36.3446 42.7937 38.4133 42.7876 40.5017M38.1047 29.2773L11.8126 40.4966H11.2126C11.2126 40.4969 11.2126 40.4972 11.2126 40.4975C11.213 41.2918 11.7634 42.0204 12.5021 42.6242C13.2673 43.2496 14.3593 43.8464 15.7154 44.3647C18.433 45.4033 22.3043 46.1625 27.0001 46.1625C31.6959 46.1625 35.5671 45.4037 38.2847 44.3657C39.6407 43.8477 40.7327 43.2514 41.4979 42.6264C42.2362 42.0233 42.7868 41.2955 42.7876 40.5017M38.1047 29.2773L38.0986 29.2715M38.1047 29.2773L38.0986 29.2715M42.7876 40.5017L42.1876 40.5H42.7876C42.7876 40.5006 42.7876 40.5012 42.7876 40.5017ZM38.0986 29.2715C37.9944 29.1718 37.911 29.0522 37.8534 28.9199C37.7958 28.7876 37.7651 28.6451 37.7631 28.5008C37.7611 28.3565 37.7879 28.2132 37.8418 28.0794C37.8958 27.9455 37.9758 27.8237 38.0773 27.7211C38.1788 27.6185 38.2997 27.5371 38.4329 27.4817C38.5662 27.4263 38.7092 27.398 38.8535 27.3983C38.9978 27.3987 39.1406 27.4279 39.2735 27.484C39.4065 27.5401 39.527 27.6222 39.6279 27.7253L40.0568 27.3058L38.0986 29.2715Z" fill="#2C1E2F" stroke="white" stroke-width="1.2"/>
<path d="M17.9625 16.8743V16.875C17.9625 18.6625 18.4925 20.4098 19.4856 21.896C20.4786 23.3822 21.8901 24.5405 23.5415 25.2246C25.1929 25.9086 27.01 26.0876 28.7631 25.7389C30.5162 25.3901 32.1266 24.5294 33.3905 23.2655C34.6544 22.0016 35.5151 20.3912 35.8639 18.6381C36.2126 16.885 36.0336 15.0679 35.3496 13.4165C34.6655 11.7651 33.5072 10.3537 32.021 9.3606C30.5348 8.36755 28.7875 7.83751 27 7.83751V8.43751L26.9993 7.83751C24.6035 7.84033 22.3065 8.79332 20.6124 10.4874C18.9183 12.1816 17.9653 14.4785 17.9625 16.8743ZM33.2293 26.1979C31.3856 27.4298 29.2181 28.0874 27.0007 28.0875C24.0278 28.0841 21.1777 26.9016 19.0756 24.7994C16.9735 22.6974 15.791 19.8474 15.7875 16.8747C15.7876 14.6572 16.4452 12.4895 17.6771 10.6457C18.9092 8.80179 20.6603 7.36465 22.7092 6.51601C24.758 5.66736 27.0124 5.44531 29.1875 5.87795C31.3625 6.31059 33.3603 7.37847 34.9284 8.94657C36.4965 10.5147 37.5644 12.5125 37.9971 14.6876C38.4297 16.8626 38.2077 19.117 37.359 21.1658C36.5104 23.2147 35.0732 24.9658 33.2293 26.1979Z" fill="#2C1E2F" stroke="white" stroke-width="1.2"/>
</svg>
